<?xml version="1.0" ?><svg xmlns="http://www.w3.org/2000/svg" width="376.72629mm" height="410.88339mm" viewBox="0 0 376.72629 410.88339">
    <path d="m -4955.655,538.72178 c -0.037,-2.35214 10.4172,-15.72579 15.3083,-24.12634 4.8912,-8.40055 25.7627,-27.72178 25.7627,-27.72178 0,0 6.0017,-22.3712 -0.4949,-42.66691 -6.4967,-20.2957 -16.9138,-39.98657 -15.5697,-69.08605 1.3442,-29.09947 7.3032,-45.10791 16.7869,-51.42513 9.4835,-6.3172 51.9733,-22.81586 51.9733,-22.81586 0,0 4.2165,-28.92708 12.9534,-39.84778 8.7368,-10.92071 44.5806,-8.93818 50.7039,2.31855 6.1234,11.25672 11.0416,28.41684 4.9677,44.13711 -2.4357,6.30399 9.6685,1.52822 21.243,15.64113 11.5746,14.11292 21.7634,52.87945 12.3544,80.09721 -9.409,27.21775 -54.5605,84.29465 -54.5605,84.29465 0,0 18.3434,19.87205 26.2215,25.34921 7.8782,5.47714 11.3132,10.41666 11.3132,10.41666 l -0.112,7.59409 4.8538,9.94625 c 0,0 -7.2808,3.29301 -10.7904,-1.4113 -3.5098,-4.7043 -6.3816,-1.41449 -6.3816,-1.41449 l 3.5812,10.78948 -15.3497,-9.86885 -3.3189,9.86885 c 0,0 -15.2708,-21.43817 -22.2903,-25.73925 -7.0194,-4.30107 -15.7563,-11.76075 -15.7563,-11.76075 l -39.428,3.0578 c 0,0 -10.9772,19.52286 -16.2791,23.99195 -5.3019,4.46908 -17.3443,12.11968 -17.3443,12.11968 l -14.9151,8.88166 -0.448,-15.35619 -10.5235,6.13857 0.7785,-16.48803 z" fill="#fff" transform="translate(101.61768,167.85199) translate(4955.4666,-399.35153)"/>
    <path d="m -5332.1543,2658.9707 c -14.2984,-0.014 -27.7598,1.2833 -38.8789,3.9629 -44.4763,10.7184 -40.3108,39.8621 -52.0859,61.9043 -11.7755,22.0422 -34.451,86.8966 -36.0645,113.25 -0.041,0.6332 -0.063,1.2743 -0.07,1.9199 -63.9801,15.9188 -109.6513,43.5812 -121.084,48.293 -21.507,8.8639 -115.778,45.7667 -134.6719,181.7988 -18.8942,136.0322 27.9847,253.9694 39.5977,296.3047 15.8789,57.886 24.4844,112.9023 24.4844,112.9023 0,0 120.4046,51.3866 184.3398,55.0469 63.9353,3.6603 187.5449,1.1485 187.5449,1.1485 0,0 153.5714,-190.9855 184.3242,-246.1582 30.7533,-55.1726 62.1179,-180.0425 22.7129,-282.0137 -33.3599,-86.3286 -51.3911,-104.9879 -128.1445,-135.9082 4.6503,-7.6347 7.6902,-14.709 8.6387,-20.6446 5.7868,-36.2122 -6.9305,-129.0427 -30.0098,-158.1093 -17.3095,-21.8 -67.7377,-33.6547 -110.6328,-33.6973 z" transform="translate(101.61768,167.85199) translate(4955.4666,-399.35153) matrix(0.26458333,0,0,0.26458333,-3417.4795,-450.03122)" fill="#7ac485"/>
    <path d="m -4955.655,538.72176 c 0,0 15.2263,-28.14433 23.18,-35.43159 7.9537,-7.28726 17.891,-16.41653 17.891,-16.41653 l 1.9633,-16.33833 c 0,0 16.928,11.02233 27.1788,12.72783 10.2508,1.70553 39.1367,7.39063 49.3301,5.42668 10.1934,-1.96395 21.8856,-3.28615 21.8856,-3.28615 l 0.9869,7.47533 34.96,30.40745 4.7418,17.54034 -15.5845,-2.8258 3.5812,10.78947 -15.3497,-9.86883 -3.3189,9.86883 c 0,0 -16.8277,-19.29723 -22.714,-24.64636 -5.8863,-5.34916 -15.3326,-12.85362 -15.3326,-12.85362 l -39.428,3.05779 c 0,0 -9.1848,14.31806 -16.1335,23.72429 -6.9487,9.40622 -20.4442,13.90263 -20.4442,13.90263 l -11.9608,7.36637 -0.448,-15.3562 -10.5235,6.13857 0.7785,-16.48801 z" fill="#7e76b5" transform="translate(101.61768,167.85199) translate(4955.4666,-399.35153)"/>
    <path d="m -4849.36,310.27763 c 2.2031,-4.18285 14.4267,-5.24454 19.4299,-4.20843 5.0031,1.03611 12.9768,6.20392 12.7494,8.41687 -0.2274,2.21295 -13.0906,8.53202 -22.2583,7.3424 -9.1677,-1.18962 -11.456,-7.41913 -9.921,-11.55084 z" fill="#fff" transform="translate(101.61768,167.85199) translate(4955.4666,-399.35153)"/>
    <path d="m -4773.0906,640.87448 c -4.2668,-2.20597 -22.5915,-18.6397 -22.7233,-20.37808 -0.057,-0.74805 1.2968,-7.72349 3.008,-15.50107 5.1421,-23.37235 5.9895,-29.29708 5.3617,-37.49095 -0.7558,-9.9623 -2.4352,-14.45855 -7.5674,-20.35422 l -4.1463,-4.76332 -0.6359,5.23275 c -1.3144,10.81326 -4.3658,10.04193 -14.2187,-3.59412 -8.0917,-11.1988 -17.4392,-20.66282 -24.4936,-24.79866 -4.2911,-2.51592 -4.8398,-2.56529 -19.085,-1.72006 -8.0668,0.47876 -16.3343,0.65458 -18.3722,0.39091 -3.5238,-0.45583 -3.8325,-0.25195 -6.2946,4.16126 -3.477,6.23259 -17.7487,22.79028 -23.7444,27.5475 -3.3399,2.65012 -5.9353,3.88659 -8.4034,4.00374 -2.4733,0.11728 -5.0864,1.36583 -8.5005,4.06187 -2.7112,2.14095 -5.9592,3.97072 -7.2179,4.06622 -3.4826,0.26425 -5.1816,-3.15611 -4.0763,-8.20774 0.4992,-2.28211 0.7369,-4.29552 0.5287,-4.47444 -0.207,-0.17904 -1.9795,1.27908 -3.9358,3.23992 -5.2083,5.2201 -6.1712,11.56722 -2.9128,19.20141 3.192,7.47897 13.5389,22.19277 24.3642,34.64766 9.66,11.11389 10.6885,13.8937 6.4953,17.55603 -2.4068,2.10189 -20.3492,9.67561 -31.9701,13.49472 -4.7879,1.5736 -4.9868,1.54685 -7.3452,-0.99035 -1.3329,-1.4342 -2.9675,-2.56643 -3.6325,-2.51597 -0.6653,0.0504 -1.7933,-0.82486 -2.5068,-1.94516 -2.5618,-4.0224 0.2536,-6.3942 13.7544,-11.58605 6.829,-2.62614 13.8514,-5.16926 15.6059,-5.65113 l 3.1894,-0.87623 -5.9875,-7.50273 c -12.595,-15.78265 -21.6184,-31.92379 -22.1559,-39.63251 -0.154,-2.02987 0.532,-5.84428 1.4977,-8.47426 2.7419,-7.47069 5.6495,-19.02298 4.7707,-18.95629 -0.437,0.0332 -3.2931,2.10927 -6.3476,4.61368 -3.0542,2.50438 -6.1763,4.6007 -6.938,4.65849 -2.1586,0.16379 -2.9812,-2.72345 -1.6748,-5.87815 0.653,-1.57604 1.3673,-4.60647 1.5879,-6.7345 0.4638,-4.4723 8.823,-18.30852 17.4514,-28.88565 6.3457,-7.77904 18.6097,-19.60533 21.5662,-20.79675 2.1735,-0.87587 2.2647,-4.28224 0.6797,-25.41786 -0.8823,-11.62806 -1.335,-13.73689 -4.9114,-22.35375 -5.5289,-13.3232 -7.8542,-21.30491 -10.2314,-35.12343 -3.5195,-20.45995 -2.0234,-42.40094 3.9696,-58.2046 3.1404,-8.28126 3.2111,-8.77768 1.1332,-7.94265 -6.2835,2.52518 -40.9506,21.14074 -45.8166,24.60254 -11.6252,8.27061 -21.4052,19.39591 -39.9706,45.46768 -5.1074,7.17244 -6.4665,9.87726 -6.2824,12.50385 0.1728,2.27691 0.8141,3.48825 2.0428,3.77822 3.0367,0.7166 4.4106,6.4828 3.3038,13.86542 -1.426,9.51269 -2.5268,12.29384 -5.221,13.19152 -6.3433,2.11364 -8.0317,-2.30781 -5.1532,-13.49438 2.8096,-10.91955 2.6105,-12.77916 -1.3375,-12.47962 -2.2976,0.17433 -3.0455,0.71044 -2.9396,2.10702 0.2097,2.76309 -3.4986,19.08353 -4.7308,20.82054 -1.3084,1.8442 -5.0769,2.22581 -6.859,0.69472 -0.7295,-0.62642 -1.4291,-2.49195 -1.5545,-4.1456 -0.2979,-3.92456 4.6206,-16.11151 7.6083,-18.85173 1.2846,-1.17815 1.9799,-2.63037 1.5454,-3.22715 -0.4792,-0.65797 -3.4484,2.19553 -7.5424,7.24878 -7.0889,8.74869 -10.1976,10.40775 -12.5579,6.70159 -1.7203,-2.70089 -0.6031,-4.861 6.0652,-11.72459 l 5.5262,-5.68805 -5.8885,0.67108 c -4.4984,0.51267 -6.3456,0.27184 -7.825,-1.01998 -1.8464,-1.61216 -1.8311,-1.79186 0.3257,-3.85214 2.7555,-2.63187 14.0636,-7.20849 18.676,-7.55846 1.8483,-0.14025 3.9438,0.34783 4.6557,1.08462 0.7124,0.73678 2.2309,1.50996 3.3746,1.71812 1.6811,0.30602 3.343,-1.72763 8.6766,-10.61859 7.229,-12.05084 20.4389,-28.61545 29.4962,-36.98661 7.8079,-7.21661 13.6901,-10.99261 32.9987,-21.1833 14.9817,-7.90708 20.2472,-10.47081 41.3429,-20.12976 3.8437,-1.75986 10.5794,-5.06192 14.9688,-7.33793 9.0638,-4.69983 24.5014,-9.93384 27.0508,-9.17126 0.9365,0.28016 1.7485,1.115 1.8047,1.85521 0.099,1.30902 -1.2816,2.03567 -14.9002,7.84051 -10.7444,4.57969 -19.537,10.61879 -24.1214,16.56757 -6.3429,8.23063 -12.5685,24.79685 -14.0719,37.44431 -2.8541,24.01527 -0.3863,44.48237 6.9926,57.99454 6.13,11.22499 9.3755,21.66105 10.6107,34.11937 l 1.0628,10.72745 6.3246,3.43255 c 3.478,1.88788 6.8541,3.39228 7.5015,3.34315 0.6713,-0.051 1.483,-3.5568 1.8875,-8.14909 1.2667,-14.38347 6.0997,-29.60915 9.9945,-31.48577 0.7546,-0.36359 1.9905,-0.22239 2.7463,0.31377 1.0873,0.77136 0.9205,2.88993 -0.7988,10.15037 -3.8686,16.33628 -3.9678,15.6425 2.5881,18.10994 3.8762,1.45871 7.4729,2.00003 11.3711,1.71109 l 5.702,-0.42159 1.8317,-4.63294 1.8318,-4.63283 -3.1535,0.14931 c -6.4977,0.30764 -11.1213,-0.64423 -13.9137,-2.86368 -3.0044,-2.38876 -2.9698,-4.99926 0.053,-3.99747 0.9608,0.31849 4.7767,0.68597 8.4797,0.81656 3.7029,0.13068 7.5383,0.51941 8.5232,0.86388 1.3754,0.48093 2.2004,-0.35348 3.5566,-3.59754 1.9107,-4.56989 1.5875,-5.49915 -1.8228,-5.2404 -4.956,0.37605 -13.0299,-2.28415 -17.627,-5.80777 -6.4775,-4.9647 -5.0668,-6.84599 2.8316,-3.77666 6.2045,2.41111 19.5971,3.86765 20.9578,2.27936 0.4588,-0.53538 1.4192,-2.74039 2.1344,-4.90008 l 1.3,-3.92662 -3.895,-0.34927 c -2.1424,-0.19209 -10.9466,-1.47452 -19.5656,-2.84983 -22.8352,-3.64395 -36.6975,-9.75962 -45.2379,-19.9583 -4.6375,-5.53774 -3.1432,-5.88386 5.0658,-1.17319 9.9187,5.69185 25.0215,10.41342 41.4366,12.95427 8.2885,1.28292 17.3335,2.32105 20.1004,2.30695 l 5.03,-0.0255 5.5891,-16.35868 c 3.4639,-10.13909 6.1643,-20.35924 7.1023,-26.88086 1.7145,-11.92144 2.2569,-13.67761 4.2698,-13.83034 1.1238,-0.0852 1.5507,1.86525 2.0002,9.14538 0.7214,11.67456 -0.088,17.81632 -4.2631,32.34701 -1.8356,6.38905 -3.5025,12.74739 -3.7045,14.12973 l -0.367,2.51327 15.7666,-1.81928 c 9.0434,-1.04347 20.5156,-3.09964 26.9023,-4.82177 6.1244,-1.65136 13.2243,-3.03966 15.7778,-3.08514 l 4.6423,-0.0825 2.722,-8.64366 c 8.1624,-25.92128 7.1172,-43.99945 -3.882,-67.13477 -3.1985,-6.72827 -5.2135,-9.46748 -9.9668,-13.55045 -3.2768,-2.81458 -5.7121,-5.40377 -5.4114,-5.75377 0.887,-1.03268 7.9617,1.28789 14.329,4.7001 3.257,1.74566 9.029,4.29454 12.8258,5.66431 9.3594,3.3764 20.4753,10.68116 36.1841,23.7784 25.5986,21.34318 34.6576,34.26383 39.2405,55.96946 1.6466,7.79742 1.7815,10.66521 0.9563,20.31456 -0.529,6.1795 -2.2411,15.65115 -3.8056,21.04807 l -2.8439,9.81264 2.5411,5.48609 c 3.4791,7.51123 3.6316,11.65923 0.5841,15.89359 -2.3304,3.23861 -2.8484,3.45911 -8.3579,3.55937 -3.2816,0.0595 -6.4686,0.65771 -7.2225,1.35544 -2.0542,1.90092 -13.0667,3.51722 -17.4613,2.56273 -8.7235,-1.89451 -14.8858,-9.30288 -14.0499,-16.89082 0.3001,-2.72379 0.9079,-3.61708 2.5455,-3.74133 1.1833,-0.0898 2.8266,0.59904 3.652,1.53068 1.3859,1.56442 1.4931,1.56069 1.4016,-0.0475 -0.044,-0.9588 0.8439,-2.51476 1.996,-3.45959 2.842,-2.32999 6.3968,-0.87809 5.8365,2.38368 -0.2153,1.25277 0.038,2.87021 0.5669,3.59425 0.669,0.91845 1.2839,-0.0676 2.0338,-3.26195 0.9487,-4.03926 1.4666,-4.64641 4.3961,-5.15473 3.4199,-0.59339 3.6301,-0.39839 5.1962,4.82422 0.5698,1.901 2.1445,3.31537 5.0369,4.52465 2.3142,0.96765 4.6887,1.72288 5.2758,1.67833 2.0482,-0.15542 0.7346,-4.21847 -2.0289,-6.27596 -1.7113,-1.27402 -2.7368,-2.94264 -2.6608,-4.32996 0.074,-1.39908 -0.9103,-2.9811 -2.5959,-4.16194 -3.6011,-2.52294 -2.2532,-5.55331 2.8395,-6.3835 3.5559,-0.57971 3.5914,-0.64117 5.6015,-9.72221 3.9081,-17.65181 3.6046,-28.79573 -1.1674,-42.91251 -5.1146,-15.13021 -16.8293,-28.68634 -41.5641,-48.09824 -12.5887,-9.87956 -24.2537,-17.54582 -25.1356,-16.51912 -0.2368,0.27538 0.8788,3.40588 2.478,6.95676 4.9343,10.9532 7.7981,22.64665 7.8149,31.90921 0.028,15.53073 -5.2247,35.82938 -13.782,53.25546 -3.25,6.61866 -8.1918,13.52171 -19.0742,26.64473 -14.9489,18.02709 -18.8594,23.4551 -18.6755,25.92155 0.057,0.76023 -1.6184,3.26709 -3.7222,5.57087 l -3.8252,4.18851 2.5748,3.13477 c 1.4163,1.72397 8.5005,8.48529 15.7426,15.02494 14.408,13.01039 17.3696,16.85493 15.9714,20.73225 -0.6885,1.90837 -0.2368,3.64149 2.1129,8.11014 4.5564,8.66592 2.333,11.91466 -5.9211,8.65112 -2.5739,-1.01757 -4.6651,-1.7411 -4.6477,-1.60771 0.011,0.13399 1.2776,4.56403 2.7998,9.84607 4.1126,14.27073 4.4185,22.51623 1.434,38.62933 -1.3873,7.49135 -3.0875,15.69763 -3.7781,18.23609 -1.5513,5.70394 -1.594,5.41442 0.7777,5.23447 3.9008,-0.29598 19.5893,7.26273 26.0845,12.56772 5.4495,4.45086 6.4912,5.80392 6.3954,8.30987 -0.1653,4.32113 -4.4002,6.55498 -10.8695,5.73337 -3.6919,-0.46889 -5.3237,-0.25728 -6.6311,0.85985 -2.2053,1.88463 -2.2591,1.88366 -6.1082,-0.10674 z m -142.2168,-93.87977 c 2.2345,-0.085 4.608,-1.01447 6.1701,-2.41571 3.2944,-2.95473 23.9279,-26.71808 23.868,-27.48859 -0.025,-0.32412 -3.6946,-1.90793 -8.1538,-3.5195 -10.0522,-3.63299 -17.8355,-9.96849 -20.987,-17.08251 -1.2151,-2.74281 -2.5151,-4.9638 -2.8891,-4.93543 -0.3736,0.0284 -5.7246,6.18186 -11.8908,13.67452 -10.5723,12.84676 -22.8179,31.35336 -19.7194,29.80154 0.7799,-0.39046 3.0678,-1.56917 5.0847,-2.61949 3.3223,-1.73 3.8293,-1.77036 5.3908,-0.4296 2.1103,1.81276 2.1135,1.84846 0.6971,8.21962 -0.6309,2.83694 -1.1471,5.22372 -1.1472,5.30411 0.011,0.08 2.1958,-1.24776 4.8796,-2.95144 3.9132,-2.48412 5.1542,-2.86177 6.2659,-1.9068 1.3803,1.18544 1.3291,1.85993 -1.0026,13.19985 -0.3355,1.63243 0.6344,1.1512 4.6899,-2.32716 3.8378,-3.29189 6.0182,-4.41991 8.744,-4.5239 z m 123.8752,-8.99362 c -0.5884,-2.77456 -0.3844,-4.27261 0.7254,-5.34616 1.3277,-1.28341 2.381,-0.94086 7.5508,2.45661 3.3045,2.17151 6.2154,3.70686 6.4686,3.41196 0.2528,-0.29501 -0.4135,-2.518 -1.4802,-4.94041 -1.0677,-2.42229 -1.7575,-5.4753 -1.533,-6.78454 0.4151,-2.42285 -1.4953,-4.21717 -26.7995,-25.16542 l -6.7392,-5.57913 -2.5488,4.34656 c -2.37,4.04265 -6.5629,7.06268 -17.0057,12.24833 -2.3077,1.14593 -2.2276,1.26432 3.2638,4.82933 5.4208,3.51893 15.6253,13.63918 19.8341,19.67031 2.3765,3.40547 3.2566,3.57054 3.7774,0.70848 0.8684,-4.77106 7.1883,-4.39474 11.2298,0.66866 3.499,4.38398 4.2718,4.25958 3.2565,-0.52467 z m -43.8196,-34.75207 c 8.2925,-3.40401 9.175,-4.0503 11.9964,-8.78596 l 3.0453,-5.11169 -3.5824,0.27181 c -1.9706,0.14951 -5.3867,1.15768 -7.5921,2.24026 -3.5143,1.72506 -4.309,1.80758 -6.4268,0.66745 -1.3896,-0.74814 -8.1344,-1.43199 -15.8694,-1.60903 -21.2483,-0.48633 -41.3338,-5.73987 -50.1951,-13.12897 l -3.9492,-3.29291 -1.8864,5.40212 c -3.0885,8.84537 0.2424,16.44709 9.5907,21.88558 11.032,6.41804 24.3547,8.41697 43.1065,6.46754 10.7192,-1.11433 14.2738,-1.93205 21.7625,-5.00625 z m 2.0421,-22.80574 c 2.3222,-2.44577 1.3555,-3.63238 -2.7286,-3.34925 -1.8035,0.12579 -6.2121,-0.15868 -9.7969,-0.63043 -6.3619,-0.83709 -6.5505,-0.79842 -7.8832,1.61637 -2.6447,4.79159 -1.9663,5.07088 11.0435,4.54811 5.9399,-0.23867 7.9659,-0.71136 9.3652,-2.1848 z m 17.0714,-1.33864 c 1.2423,-0.43621 4.6416,-4.70057 7.6998,-9.65971 3.0115,-4.88328 11.1601,-15.66293 18.1086,-23.95484 11.9426,-14.25173 20.9779,-28.1906 18.1166,-27.94864 -0.7075,0.0591 -3.3484,0.90954 -5.8683,1.88818 -9.9438,3.86176 -24.9392,6.89712 -40.5534,8.2088 l -15.835,1.32998 -1.5551,6.3161 c -0.8551,3.47385 -1.8991,7.03951 -2.3194,7.92366 -3.2094,6.74735 -6.2435,14.97729 -5.6954,15.44805 0.9116,0.78287 15.5867,-0.3399 18.1985,-1.39188 1.6769,-0.67555 5.7015,-7.61269 5.5529,-9.57098 -0.017,-0.23262 -1.9907,-0.58569 -4.3845,-0.78452 -4.7164,-0.39151 -11.3685,-2.61361 -11.4606,-3.82816 -0.032,-0.41442 3.9887,-1.03288 8.9344,-1.37433 4.9455,-0.34153 11.1631,-1.14554 13.8177,-1.78689 4.0611,-0.98117 4.9533,-0.89758 5.6278,0.52755 1.1549,2.43901 -0.5816,5.05194 -3.925,5.90633 -2.7627,0.70609 -2.9921,1.2954 -5.1802,13.30574 -1.259,6.91195 -2.8973,14.3564 -3.6404,16.5434 -1.2574,3.70053 -1.2303,3.96623 0.3935,3.82979 0.9591,-0.0838 2.7448,-0.49786 3.9682,-0.92742 z m -47.7105,-0.3549 c 0.67,-2.02111 1.2041,-3.85652 1.1873,-4.07866 -0.017,-0.22215 -2.8393,-0.44519 -6.2725,-0.49565 -4.5646,-0.067 -7.2528,-0.7485 -10.006,-2.5359 l -3.7644,-2.44413 0.1432,2.88252 c 0.08,1.58529 0.027,3.91375 -0.1092,5.17387 -0.3096,2.81782 0.7239,3.38304 8.0851,4.42293 8.9323,1.26184 9.3912,1.13685 10.7376,-2.92506 z m 27.2896,-6.75216 c 8.0444,-0.61038 8.4838,-0.76611 9.4307,-3.34674 0.5465,-1.48852 0.9648,-3.03106 0.9295,-3.42781 -0.031,-0.39712 -2.797,-0.60574 -6.1368,-0.46454 -3.3401,0.14119 -7.8594,-0.33555 -10.0434,-1.05936 -2.184,-0.72371 -4.039,-1.18843 -4.123,-1.03257 -1.5375,2.85604 -4.9108,10.49307 -4.8703,11.02637 0.03,0.39365 1.477,0.31733 3.2154,-0.16965 1.7383,-0.48694 6.9577,-1.17356 11.5979,-1.52564 z m -174.8775,-33.90557 c -1.2776,-1.09732 -1.1113,-6.78149 0.3587,-12.25128 1.1549,-4.29801 1.8615,-5.30632 3.8221,-5.45509 1.7355,-0.13168 2.666,0.56184 3.3418,2.49033 1.0864,3.10079 0.3411,11.85972 -1.1937,14.02315 -1.095,1.54345 -5.0523,2.28939 -6.3289,1.19289 z m 193.6454,-74.7618 c -5.1371,-7.05596 38.5846,-20.23813 44.4311,-13.39607 1.9909,2.32968 2.0257,2.97167 0.2752,5.01185 -1.0963,1.27636 -3.1212,1.6638 -8.9097,1.70482 -6.6661,0.0473 -19.8793,2.82533 -32.4238,6.81706 -1.4605,0.46474 -2.9773,0.40278 -3.3709,-0.13779 z m -31.8605,-7.93264 c -8.8707,-5.90827 -19.9135,-11.27832 -28.804,-14.00721 -5.3075,-1.62919 -8.6336,-3.2298 -8.9242,-4.29458 -1.6768,-6.15067 29.7404,2.35311 42.0753,11.38861 4.7535,3.4822 5.9017,7.26744 2.8026,9.24134 -1.5114,0.9624 -2.8771,0.51759 -7.1497,-2.32816 z m 13.0325,-20.82566 c -11.7331,-2.80631 -23.0265,-12.74669 -27.6757,-24.3592 -1.736,-4.33648 -1.9579,-6.21682 -1.3844,-11.73078 0.3757,-3.61159 1.2424,-7.884 1.9262,-9.49423 0.6836,-1.61024 1.1339,-4.36764 1.0003,-6.12756 -0.1335,-1.75989 0.1711,-4.13731 0.6766,-5.28305 0.7119,-1.61257 0.5511,-2.19345 -0.7113,-2.57119 -2.0751,-0.62065 -2.2856,-3.25512 -0.5049,-6.26393 0.7647,-1.28959 1.2992,-2.71196 1.1872,-3.16075 -0.5108,-2.05354 0.086,-3.10427 2.8721,-5.04804 2.5221,-1.76012 2.7693,-2.31995 1.5712,-3.55936 -1.1863,-1.22702 -1.0261,-1.8224 0.9665,-3.59309 3.7746,-3.35492 7.7384,-8.93036 8.6486,-12.16577 0.3514,-1.24896 1.6155,-1.93035 3.9033,-2.10394 2.5237,-0.19148 3.5966,-0.86351 4.2221,-2.64462 1.3004,-3.70328 4.9534,-3.88517 8.7054,-0.4336 3.1412,2.88964 3.2607,2.91216 4.1971,0.79049 0.5304,-1.20118 2.0489,-3.01848 3.3749,-4.03857 1.9414,-1.49372 2.7279,-1.6293 4.0427,-0.69675 0.8975,0.63683 1.6903,1.92175 1.7611,2.85537 0.1048,1.38485 1.216,1.61028 6.0323,1.22361 l 5.9042,-0.4744 0.5752,3.31366 c 0.3389,1.95748 1.1467,3.27027 1.9717,3.20767 0.7682,-0.0583 2.8578,0.94531 4.6431,2.23026 1.7858,1.28491 3.9781,2.2807 4.872,2.21286 2.3133,-0.17551 5.4654,4.30773 4.9641,7.06083 -0.2303,1.26525 0.1231,2.86195 0.7871,3.54808 0.6636,0.68616 1.073,2.41953 0.9102,3.85194 -0.1686,1.48422 0.3428,3.05743 1.1891,3.65776 1.9534,1.3859 2.2459,5.8194 0.4385,6.67441 -1.0091,0.47776 -1.1779,1.67751 -0.5835,4.14394 0.6847,2.83946 0.5111,3.49619 -0.952,3.60721 -1.5295,0.11605 -1.6274,0.68634 -0.6739,3.92496 0.6138,2.08402 1.3927,6.52184 1.7311,9.86179 0.5562,5.48081 0.8379,6.07217 2.8985,6.06766 1.2561,-0.003 3.04,0.64442 3.9639,1.43826 1.5035,1.29149 1.5074,1.64474 0.033,3.36061 -1.1167,1.29992 -2.5818,1.80313 -4.5491,1.56257 -2.6518,-0.32428 -3.2654,0.29341 -7.1198,7.16866 -5.766,10.28429 -14.5551,17.15312 -27.0022,21.10283 -8.1533,2.58716 -11.1137,2.72614 -18.8182,0.88333 z m 25.1109,-13.19557 c 6.9382,-3.8594 10.1574,-6.94648 13.2013,-12.65897 l 1.5785,-2.96239 -3.2493,-0.39729 c -4.796,-0.58638 -4.228,-2.91913 1.0013,-4.11366 4.2531,-0.97157 4.4707,-1.20479 4.7976,-5.13856 0.1881,-2.26649 0.092,-4.46415 -0.212,-4.88381 -0.3041,-0.41963 -1.4131,-5.06712 -2.4617,-10.3279 -1.5652,-7.85464 -2.3861,-9.97712 -4.5886,-11.86916 l -2.6824,-2.30402 -3.328,3.75432 c -2.8883,3.25817 -3.6067,3.6085 -5.4352,2.65067 -1.1588,-0.60704 -3.0104,-1.03511 -4.1147,-0.95132 -1.104,0.0838 -2.3316,-0.29296 -2.7279,-0.83713 -0.456,-0.62629 -1.49,-0.35827 -2.8178,0.73032 -3.0242,2.47925 -6.8212,2.51684 -7.6614,0.0759 -0.6852,-1.99023 -2.5727,-2.73237 -2.4381,-0.95855 0.1181,1.55545 -2.9563,2.45046 -5.1267,1.49245 -1.5622,-0.68948 -2.1443,-2.01799 -2.4081,-5.49517 -0.695,-9.15997 -6.2414,-3.6645 -12.9787,12.86002 -5.4816,13.44373 -6.4383,20.80257 -3.5932,27.63647 l 1.5598,3.74648 2.6574,-3.77286 c 5.1353,-7.29047 13.1392,-8.59086 25.4816,-4.13993 6.3768,2.29955 14.0203,8.32076 14.2401,11.21752 0.354,4.66442 -11.0886,10.27955 -20.3037,9.96345 -5.2323,-0.17943 -5.2575,-0.16628 -2.0999,1.09593 5.2391,2.09434 15.419,0.19977 23.7114,-4.41292 z m -6.023,-23.98157 c -0.4303,-0.37009 -0.8474,-1.52019 -0.9259,-2.55588 -0.079,-1.03562 -0.6051,-1.84797 -1.1699,-1.80511 -0.5648,0.0429 -1.0733,-0.52984 -1.1297,-1.27274 -0.1096,-1.44397 10.9265,-6.72956 14.596,-6.99058 2.8168,-0.19899 4.1456,2.47087 1.9134,3.84561 -0.9296,0.57259 -3.3695,1.47739 -5.4223,2.01068 -3.2853,0.85363 -3.6837,1.30151 -3.3312,3.745 0.3027,2.09188 -0.1103,2.88873 -1.6731,3.23559 -1.1407,0.25309 -2.4262,0.15767 -2.8573,-0.21257 z m -24.017,-0.62348 c -0.3891,-0.53412 -0.3214,-1.80154 0.149,-2.81638 0.6806,-1.46657 0.2071,-2.17549 -2.3068,-3.45464 -3.6247,-1.84405 -5.0858,-4.20163 -3.6447,-5.87957 1.1319,-1.31772 13.5622,2.99582 16.0503,5.56965 2.2539,2.33151 0.9665,5.02356 -2.2287,4.66044 -1.694,-0.19249 -2.834,0.22974 -3.1096,1.15102 -0.502,1.6787 -3.8642,2.20566 -4.9095,0.76948 z m 21.3231,18.67688 c 1.3928,-1.62154 1.1027,-1.91621 -3.4845,-3.5428 -6.6889,-2.37157 -15.3474,-3.43313 -18.7513,-2.29893 -3.093,1.03061 -5.414,5.63566 -3.6184,7.17825 3.4019,2.92205 23.0695,1.90532 25.8542,-1.33652 z" transform="translate(101.61768,167.85199) translate(4955.4666,-399.35153)"/>
</svg>