<?xml version="1.0" ?><svg xmlns="http://www.w3.org/2000/svg" width="280.32849mm" height="432.75848mm" viewBox="0 0 280.32849 432.75848">
    <path d="m -4103.0785,445.12919 c -5.2801,0.002 -10.294,0.64559 -13.0855,1.60145 -6.8715,2.35287 -11.753,18.59346 -11.73,28.9419 0.023,10.34844 17.5606,16.34526 28.0876,16.69924 0,0 15.8022,-4.83064 20.36,-10.74405 4.5579,-5.91341 -0.2546,-25.04861 -4.8818,-31.37844 -2.7475,-3.75835 -11.0333,-5.12355 -18.7503,-5.1201 z m 8.7979,58.91061 c -16.2107,-0.11601 -37.3481,1.22328 -45.0076,3.68298 -11.141,3.57775 -25.6358,19.58181 -29.3822,31.53709 0,0 -11.1224,51.8339 -10.5497,65.65904 0.5725,13.82513 8.7001,54.76787 12.6101,73.76087 3.91,18.99301 31.997,75.13495 31.997,75.13495 l 28.4174,37.80906 c 0,0 2.7974,-2.54714 5.4477,-5.12371 2.6503,-2.57659 13.7747,-8.18623 25.4393,-6.97891 11.6645,1.20732 22.3929,17.6594 22.3929,17.6594 0,0 5.7916,-10.7773 17.4889,-16.4016 11.6972,-5.62427 25.2103,7.46466 25.2103,7.46466 0,0 6.8383,-13.00093 11.2391,-15.26831 4.4008,-2.2674 10.2965,-5.97995 20.4396,-5.83271 10.1431,0.14724 7.591,-2.53251 6.8384,-10.39471 -0.7526,-7.8622 10.1922,-20.62737 16.278,-22.89474 6.0859,-2.2674 14.7896,-2.60607 13.4809,-4.3434 -1.3089,-1.73733 -1.7383,-9.43566 3.824,-10.45156 5.5623,-1.01591 9.8485,-4.96192 7.2146,-11.49904 -2.6339,-6.53712 -15.918,-23.74873 -31.9505,-32.33239 -16.0328,-8.58365 -62.0513,-48.00784 -71.3109,-57.78407 -9.2597,-9.77624 -17.6688,-38.78402 -17.7018,-47.42657 -0.033,-8.64254 5.8408,-39.78201 4.3356,-44.61123 -1.505,-4.82923 -17.8944,-18.07942 -29.4281,-20.27318 -3.6043,-0.68555 -9.9545,-1.03919 -17.323,-1.09192 z" fill="#fff" transform="translate(89.356122,-12.876659) translate(4115.7039,-412.84636)"/>
    <path d="m -4122.7004,503.69408 c -1.7133,-0.007 -3.7265,0.26649 -5.8906,0.87644 -8.6564,2.43972 -23.8748,12.42062 -26.1544,19.96156 9.4265,-1.49709 29.6152,-10.00871 35.3353,-14.73192 4.29,-3.5424 1.8498,-6.08539 -3.2903,-6.10608 z m 36.3435,2.78948 c 0.801,2.8833 26.0179,20.97275 33.6182,22.59708 7.6003,1.62433 -3.3667,-12.47791 -11.7766,-17.08009 -8.41,-4.60219 -21.8416,-5.51699 -21.8416,-5.51699 z m -58.4698,132.10513 c 0,0 -3.4809,3.90898 3.512,18.79677 6.9929,14.88779 33.4237,11.53324 52.1844,8.06773 18.7606,-3.46549 15.2182,-22.5397 15.2182,-22.5397 0,0 -18.5142,-0.52662 -23.2276,1.52496 -4.7132,2.05157 -18.3295,-0.83201 -20.5475,-2.02417 -2.218,-1.19214 -27.1395,-3.82559 -27.1395,-3.82559 z" fill="#2d6090" transform="translate(89.356122,-12.876659) translate(4115.7039,-412.84636)"/>
    <path d="m -4098.3897,503.20262 c -8.0399,0.15147 -18.249,3.19101 -26.185,10.56836 -6.9104,6.424 -30.1707,10.7611 -30.1707,10.7611 l 9.0371,88.75221 c 3.711,3.02839 25.7881,13.47181 41.4497,10.4717 15.6616,-3.00011 32.644,-8.09458 32.644,-8.09458 l 19.9337,-86.0516 c 0,0 -22.7199,-10.64609 -34.676,-23.12625 -2.0463,-2.13606 -6.5319,-3.38455 -12.0328,-3.28094 z m -1.6386,15.72464 c 9.9762,-0.0939 31.4485,4.36673 31.936,17.06149 0.5031,13.10426 -21.5114,17.26468 -34.5312,17.29299 -15.2527,-1.50006 -36.8579,-6.1131 -35.3483,-17.97204 1.5095,-11.85891 27.5177,-15.96295 37.0153,-16.35919 0.2968,-0.0124 0.6063,-0.0202 0.9282,-0.0232 z" fill="#525f69" transform="translate(89.356122,-12.876659) translate(4115.7039,-412.84636)"/>
    <path d="m -4100.0283,518.92726 c -0.3219,0.003 -0.6314,0.0109 -0.9282,0.0232 -9.4976,0.39624 -35.5058,4.50028 -37.0153,16.35919 -1.5096,11.85894 20.0956,16.47198 35.3483,17.97204 13.0198,-0.0283 35.0343,-4.18873 34.5312,-17.29299 -0.4875,-12.69476 -21.9598,-17.15534 -31.936,-17.06149 z m -45.68,94.35703 0.8816,25.3044 22.4664,3.22149 c 0,0 6.8243,6.70764 14.9381,6.59445 8.1139,-0.11324 15.1902,-4.75475 15.1902,-4.75475 l 18.3199,-0.73639 2.2975,-27.25208 c 0,0 -15.3971,5.14773 -36.8138,8.77051 -21.4168,3.62278 -37.2799,-11.14763 -37.2799,-11.14763 z" fill="#d7b55c" transform="translate(89.356122,-12.876659) translate(4115.7039,-412.84636)"/>
    <path d="m -4154.7454,519.24041 c -2.243,17.02028 13.1557,98.66487 9.9187,119.34825 -3.2369,20.68341 -1.3675,30.82576 30.4898,31.56091 31.8574,0.73514 38.3147,-11.3614 40.4248,-27.23611 2.1101,-15.87468 -0.1071,-14.56192 7.4197,-48.43094 7.5267,-33.869 14.3533,-29.82572 14.3533,-29.82572 0,0 -5.7763,37.0196 40.4344,74.56432 46.2107,37.54472 56.363,42.69071 66.5154,51.72245 10.1523,9.03173 16.5705,26.99019 16.5705,26.99019 0,0 -11.611,-0.10504 -14.2367,3.30812 -2.6255,3.41317 0.8752,9.7669 0.8752,9.7669 0,0 -17.0372,-1.05021 -22.5802,7.14137 -5.5429,8.19156 -7.4615,28.44499 -7.4615,28.44499 0,0 -20.9534,2.37842 -26.9048,7.15684 -5.9514,4.77843 -12.348,14.49163 -12.348,14.49163 0,0 -18.1504,-10.88382 -28.7136,-7.29933 -10.5632,3.5845 -12.9273,16.23627 -12.9273,16.23627 0,0 -7.2199,-15.26227 -20.067,-17.05547 -18.5571,-2.59021 -33.2129,11.49869 -33.2129,11.49869 0,0 -25.1202,-28.32127 -36.8479,-50.90062 -11.7277,-22.57936 -29.1702,-77.31885 -34.4441,-104.48084 -5.2739,-27.16196 -0.3764,-64.67213 4.2204,-80.8273 4.5968,-16.15516 6.9366,-27.99006 18.5218,-36.1746 z" fill="#2b3035" transform="translate(89.356122,-12.876659) translate(4115.7039,-412.84636)"/>
    <path d="m -4123.6454,483.62247 c -4.472,-6.18924 -4.3632,-14.85855 -2.9853,-16.41403 1.3778,-1.55546 43.2455,-8.95213 45.2881,-5.09064 2.0426,3.86149 4.5203,23.37559 -5.4389,26.83462 -9.9593,3.45903 -32.6094,1.80565 -36.8639,-5.32995 z" fill="#eabc9e" transform="translate(89.356122,-12.876659) translate(4115.7039,-412.84636)"/>
    <path d="m -4160.9175,857.36215 c -4.8855,-2.94677 -7.0579,-32.82318 -3.7741,-51.88977 2.6978,-15.66068 7.1019,-30.37456 9.3014,-31.07199 1.5542,-0.493 7.7469,-27.06577 7.9083,-33.93648 0.046,-1.90862 -2.3491,-8.50021 -5.3206,-14.64795 -5.4095,-11.19231 -15.2379,-37.21878 -18.0036,-47.67526 -1.2762,-4.82341 -1.9694,-5.5679 -5.2036,-5.58948 -2.0525,-0.014 -6.6733,-1.78235 -10.2687,-3.9304 -5.3316,-3.18522 -6.5371,-4.59988 -6.5371,-7.67071 0,-2.07089 -0.9289,-4.49875 -2.0645,-5.39522 -1.1352,-0.8965 -2.0644,-3.58165 -2.0644,-5.96706 0,-2.38537 -0.6792,-5.99571 -1.5097,-8.02294 -6.0114,-14.677 -8.7199,-54.11952 -4.7032,-68.49737 4.6205,-16.53956 19.7582,-38.30754 37.1652,-53.44323 9.2239,-8.02025 26.1141,-16.14897 36.4829,-17.55814 4.163,-0.56578 15.6202,-1.37995 25.4599,-1.80926 16.1572,-0.70491 19.1867,-0.46494 31.2616,2.47626 17.496,4.26175 23.8389,7.98893 33.9553,19.95307 9.6894,11.45885 16.9516,25.03582 20.315,37.97888 3.2818,12.62832 3.2868,43.58107 0,56.18954 l -2.3624,9.09005 8.6431,8.36596 c 8.194,7.93169 16.6657,14.28558 49.1817,36.8874 16.7617,11.65099 26.7777,21.60533 33.5722,33.36577 7.4566,12.90585 6.4612,16.18182 -5.3006,17.44308 -6.6167,0.70957 -7.2234,1.71871 -4.128,6.87008 3.0881,5.13937 2.5137,5.88578 -4.606,5.98334 -4.1503,0.0568 -9.1895,1.29296 -13.3453,3.27326 -9.1937,4.38143 -12.441,10.507 -11.9971,22.62893 0.2811,7.70354 0.04,8.86051 -1.839,8.18094 -3.3097,-1.20814 -19.7279,2.84038 -26.2371,6.46988 -6.2884,3.50569 -12.1682,10.25707 -10.7859,12.3843 1.3997,2.1547 -2.7538,5.36649 -4.6309,3.58083 -0.8595,-0.81786 -1.5629,-2.23649 -1.5629,-3.15255 0,-2.35891 -14.4264,-6.08521 -19.8271,-5.1213 -5.307,0.94727 -12.1635,6.96159 -14.6775,12.87529 -2.8937,6.80671 -5.5536,7.86204 -7.831,3.10704 -1.8499,-3.86277 -9.8102,-12.59971 -11.4797,-12.59971 -0.6787,0 -1.2352,2.50404 -1.2372,5.56461 0,3.06053 -1.5503,11.0572 -3.4408,17.77035 -1.89,6.71314 -3.4369,12.36404 -3.4369,12.55751 0,0.19328 3.2513,1.05692 7.2252,1.91869 8.3191,1.80414 22.8466,8.91924 24.9793,12.2344 2.5904,4.02609 -0.4081,4.88431 -12.2489,3.50602 -14.7906,-1.72157 -32.1781,-6.26059 -35.2775,-9.20902 -2.7731,-2.6383 -2.7756,-2.56168 1.0907,-29.94003 1.1699,-8.28146 2.4099,-15.49914 2.7554,-16.03923 1.7481,-2.7313 -6.9652,-0.47736 -10.8195,2.79864 -4.0053,3.40479 -4.2477,4.00928 -2.4402,6.08084 1.8239,2.0913 1.7408,2.22005 -0.9167,1.41763 -1.9903,-0.60093 -3.1805,-0.24347 -3.7304,1.12048 -1.4166,3.51231 -3.6454,2.15286 -3.6921,-2.2523 -0.04,-3.17966 -1.4268,-5.57147 -5.5096,-9.46198 -3.0054,-2.86368 -8.9904,-10.09507 -13.3005,-16.06972 -4.9024,-6.79677 -8.1669,-10.239 -8.7209,-9.19591 -0.4868,0.91696 -1.6546,5.08342 -2.5946,9.25883 -1.258,5.5882 -1.3052,8.05469 -0.1795,9.34628 2.5963,2.97627 0.1451,12.41416 -6.9389,26.72194 -5.1885,10.47833 -6.4004,14.09057 -5.3526,15.9531 1.5996,2.84348 1.6548,20.18625 0.093,29.22808 -1.3354,7.7302 -4.7392,10.43989 -9.5039,7.56571 z m 119.3401,-78.00398 c 5.6715,-2.79052 16.1254,-2.50713 23.4033,0.63445 3.3296,1.43725 6.1417,2.4554 6.2483,2.26257 5.5828,-10.04649 17.4814,-16.68403 29.945,-16.70436 l 7.8421,-0.014 -1.4546,-3.96928 c -3.3087,-9.02966 3.23,-24.0985 12.2173,-28.15597 2.4863,-1.1224 7.5706,-2.38437 11.2983,-2.80445 6.5068,-0.73316 6.727,-0.89128 5.5041,-3.95142 -1.785,-4.46697 -1.6375,-5.28974 1.4787,-8.25452 1.8349,-1.74578 4.5872,-2.61866 8.2571,-2.61866 6.5854,0 6.7587,-0.99965 1.6883,-9.74718 -4.4938,-7.75269 -18.2973,-18.72058 -47.1036,-37.4267 -10.9753,-7.12715 -24.7823,-17.17637 -30.6825,-22.33153 -5.9004,-5.15514 -11.109,-9.01024 -11.575,-8.56687 -0.4662,0.44342 0.1524,1.85623 1.3725,3.13972 3.5733,3.75677 4.4438,12.49056 1.6872,16.93057 -4.9421,7.95927 -18.6035,13.07834 -18.6035,6.97079 0,-2.15851 -0.5242,-2.39668 -3.1692,-1.43998 -3.9146,1.41597 -7.8406,-0.45783 -7.8406,-3.74208 0,-1.32047 -1.2388,-2.70902 -2.7526,-3.08565 -2.9727,-0.73961 -3.6889,-4.75264 -1.2601,-7.06329 0.8208,-0.78085 1.8341,-5.00892 2.2523,-9.3957 0.9052,-9.49408 3.1843,-10.90625 11.7026,-7.25154 5.3535,2.29656 5.5661,2.29322 7.4181,-0.1165 2.7451,-3.5716 2.4381,-4.86463 -2.6778,-11.28454 -9.814,-12.31433 -14.7969,-22.59143 -17.9981,-37.11998 l -1.7184,-7.7993 -4.3564,15.00054 c -5.2095,17.93823 -8.4795,37.56678 -8.4975,51.00695 0,7.37236 -0.674,10.85045 -2.6633,13.95441 -2.5436,3.96828 -2.5575,4.44181 -0.3511,11.78388 1.8841,6.27239 2.3,13.89576 2.3112,42.34654 0,19.08337 -0.5002,41.83134 -1.1281,50.551 l -1.141,15.854 6.1826,3.44695 c 3.4002,1.89584 7.538,5.53443 9.1955,8.08571 l 3.0133,4.63878 3.9094,-5.86426 c 2.1499,-3.22537 5.7712,-6.78059 8.0477,-7.90048 z m -49.9624,-1.8233 6.7576,-2.29941 1.7858,-32.01717 c 1.5908,-28.52598 1.6344,-73.71735 0.068,-75.20341 -0.3238,-0.30805 -3.3517,0.40929 -6.7284,1.59413 -6.8078,2.38882 -28.5691,3.02075 -37.6064,1.0921 l -5.3188,-1.1351 1.0056,25.5086 c 0.6896,17.50301 0.4778,29.92479 -0.6759,39.58019 l -1.681,14.07161 7.2338,11.3518 c 3.979,6.24351 10.0498,15.03745 13.4908,19.54209 l 6.2566,8.19036 4.3248,-3.9882 c 2.379,-2.1935 7.366,-5.02296 11.0831,-6.28759 z m -56.5238,-118.26279 c -1.9063,-2.15548 -3.7423,-5.19929 -4.0793,-6.76407 -0.3393,-1.56481 -0.9229,-15.21817 -1.3009,-30.34087 -0.4191,-16.76945 -1.5969,-32.60359 -3.019,-40.58903 -1.4073,-7.90122 -2.3924,-20.99319 -2.4836,-33.01539 -0.1401,-18.30619 -0.3276,-19.73996 -2.3465,-17.67588 -2.7689,2.83312 -10.2662,30.02968 -12.9522,46.98175 -2.6378,16.6504 -2.5946,32.24433 0.136,49.82353 1.5969,10.27145 2.9087,14.75267 4.8166,16.45719 1.4425,1.28827 2.6226,3.42903 2.6226,4.75722 0,1.32822 1.1714,2.70643 2.6028,3.06259 1.8037,0.44869 2.9034,2.33705 3.5798,6.14676 0.8306,4.67565 0.5057,5.97638 -2.1705,8.68647 -3.0001,3.03783 -3.0629,3.50908 -1.3461,10.04517 2.9568,11.2529 10.9292,33.30541 14.9285,41.29321 l 3.7368,7.46295 0.3707,-31.20628 0.3707,-31.20627 z m 51.1738,4.08002 c 9.1501,-2.95657 18.8662,-11.24028 18.0299,-15.3722 -0.6748,-3.33149 -12.421,-2.20249 -18.601,1.78783 -2.6992,1.74265 -6.834,3.1663 -9.1884,3.16362 -4.3602,-0.005 -13.2264,-4.2571 -13.2264,-6.34321 0,-0.63214 -3.8704,-1.46437 -8.6016,-1.84942 -4.7304,-0.38506 -9.6847,-1.11797 -11.0095,-1.62867 -1.9175,-0.73925 -2.4083,-0.25127 -2.4083,2.39374 0,2.44854 0.8141,3.43237 3.0962,3.74075 2.2978,0.31029 3.6296,1.94318 5.1608,6.32886 1.1357,3.25079 2.5596,6.62931 3.1644,7.50791 10.4018,5.5011 25.0455,2.91325 33.5839,0.27079 z m -3.8052,-22.75521 c 2.4681,-2.82939 0.4341,-11.22848 -2.7191,-11.22848 -2.6895,0 -8.204,5.79572 -8.204,8.62212 0,3.85695 8.1381,5.79882 10.9231,2.60636 z m 16.5485,-2.06319 c 2.0471,0 2.5884,-1.41255 3.1359,-8.18332 0.3627,-4.50078 0.4754,-8.39296 0.2497,-8.64923 -0.3513,-0.39914 -12.7659,3.58648 -14.1351,4.53853 -0.4101,0.28503 0.5672,3.81582 3.3497,12.1025 0.3354,1.00139 1.5373,1.42861 2.7605,0.98201 1.1912,-0.43479 3.279,-0.79049 4.6401,-0.79049 z m -95.4578,-2.29137 c -2.2436,-6.97909 -3.7948,-28.70448 -2.9601,-41.45654 1.1635,-17.78032 2.6894,-26.11983 7.1634,-39.14983 1.9322,-5.62671 3.1989,-10.52896 2.8156,-10.89395 -0.9294,-0.88384 -7.9552,8.96344 -12.4872,17.50158 -7.9889,15.04999 -9.3803,28.64113 -5.6705,55.39896 2.8369,20.46437 2.268,19.36834 10.7507,20.71281 0.6186,0.0981 0.793,-0.85278 0.3862,-2.11303 z m 59.0403,-2.49231 c 1.1553,-2.63102 1.9382,-4.90837 1.7386,-5.06077 -0.1993,-0.15257 -3.5212,-1.25855 -7.3823,-2.45814 -3.8615,-1.19957 -8.1964,-3.02782 -9.6337,-4.06282 -1.4375,-1.03504 -3.078,-1.90058 -3.6454,-1.92351 -1.6041,-0.0647 -1.2149,14.09886 0.4134,15.05626 1.1824,0.6953 5.8473,1.62822 15.3947,3.07864 0.5573,0.0846 1.959,-1.99865 3.1147,-4.62966 z m 14.7063,-15.42321 c 4.6535,-1.85006 4.7166,-1.98316 4.4955,-9.49261 l -0.2212,-7.61623 -9.8332,0.26241 c -13.1439,0.35111 -13.6691,0.75268 -12.1806,9.31411 0.9197,5.28756 1.9251,7.23228 4.1875,8.10026 4.4115,1.6924 8.2755,1.53045 13.5549,-0.56809 z m -23.0244,-7.45353 c -3.8482,-10.37623 -1.7531,-35.96373 3.0665,-37.46044 1.1892,-0.36929 1.4099,1.52148 0.8162,6.99468 -0.7614,7.01961 -0.6451,7.43184 1.811,6.42729 1.4439,-0.59034 6.3404,-1.92528 10.8821,-2.96653 4.5414,-1.04125 8.8766,-2.05475 9.6334,-2.25224 0.7713,-0.20124 1.1669,-3.31044 0.8995,-7.07241 l -0.4769,-6.71342 h -5.0828 c -6.7993,0 -20.4108,3.45696 -26.0395,6.6131 -5.6958,3.19395 -8.8684,3.29394 -8.2794,0.26092 0.8207,-4.22716 16.478,-10.52483 28.6848,-11.53794 10.1613,-0.84327 10.9826,-1.13006 10.9826,-3.83537 0,-2.5531 -0.9196,-3.02679 -7.2489,-3.73452 -11.1996,-1.25229 -20.0035,-4.64598 -25.9021,-9.98437 -4.614,-4.17575 -5.3834,-5.66804 -5.3834,-10.44146 0,-7.57311 5.3336,-12.232 18.3878,-16.06213 11.4632,-3.36325 22.8024,-3.58495 30.2233,-0.59087 5.8271,2.35121 5.9263,5.54151 0.1074,3.43637 -3.9116,-1.41477 -12.5551,-1.61534 -19.8858,-0.46141 -4.481,0.70536 -4.8857,1.13821 -4.8857,5.22289 0,4.1725 0.2887,4.45383 4.576,4.45383 3.5649,0 4.8529,-0.69488 5.8327,-3.14614 2.1675,-5.42478 6.0701,-5.49439 7.1306,-0.12732 0.8138,4.11823 6.3876,4.18132 8.0221,0.0906 1.5839,-3.96374 1.8887,-4.018 6.863,-1.22265 7.0287,3.9502 10.6326,13.57043 5.0831,13.57043 -1.0665,0 -2.71,-0.88377 -3.6521,-1.964 -2.1797,-2.49835 -5.5049,-2.54502 -5.5049,-0.0772 0,3.05881 -2.4362,3.60822 -6.0391,1.36205 -3.1265,-1.94883 -3.4661,-1.92955 -4.7937,0.27278 -1.3732,2.27817 -1.5989,2.27962 -5.8075,0.0374 -3.9415,-2.1002 -4.6104,-2.13283 -6.7074,-0.32734 -2.9593,2.54787 -4.1634,2.52373 -6.1984,-0.12425 -1.3052,-1.6979 -2.2166,-1.83451 -4.4971,-0.67368 -2.2905,1.16652 -3.4869,0.97272 -6.0147,-0.97447 -3.1308,-2.41232 -3.1353,-2.45882 -0.5748,-6.20028 1.4186,-2.07336 3.555,-4.54919 4.7476,-5.50181 1.1922,-0.95265 -0.4841,-0.39176 -3.7249,1.24635 -13.747,6.9486 -6.2042,17.05205 15.6159,20.91719 14.7997,2.62153 35.7711,-1.27462 40.013,-7.43365 3.7875,-5.49991 -1.5403,-14.7145 -11.6075,-20.0745 -3.8415,-2.04528 -1.1837,-2.76874 4.595,-1.25073 6.2652,1.64581 13.7168,8.5412 14.7416,13.64134 1.129,5.61872 -1.4671,12.04182 -6.2586,15.48425 -5.0839,3.65253 -17.2018,7.35228 -24.0814,7.35228 -4.4571,0 -4.6641,0.19773 -3.767,3.59795 0.522,1.9789 1.0538,3.63863 1.1814,3.68829 6.3872,2.48423 17.4596,8.66906 21.2946,11.89456 6.0629,5.09996 4.3013,5.61498 -4.0382,1.18057 -3.3166,-1.76354 -8.349,-4.12823 -11.1833,-5.25489 l -5.1529,-2.04841 v 6.42227 c 0,5.69235 0.3744,6.51217 3.3127,7.21327 1.8219,0.43506 4.2991,1.15114 5.5048,1.59134 1.7558,0.641 2.192,-0.13994 2.192,-3.92236 0,-6.08336 2.3534,-6.11542 3.5497,-0.0483 1.0007,5.07481 0,22.97618 -1.5369,27.73142 -0.7677,2.36199 -0.4235,2.94597 1.7367,2.94597 2.1588,0 3.0421,-1.49552 4.4472,-7.5286 2.6482,-11.36833 12.8917,-41.6192 17.8223,-52.63059 2.4014,-5.3626 4.8935,-11.98468 5.5387,-14.71574 l 1.1727,-4.96558 -12.0982,-6.06864 c -6.6536,-3.33778 -15.4116,-8.47544 -19.4614,-11.41703 -6.5893,-4.78604 -8.3275,-5.40331 -16.5334,-5.87069 -8.4526,-0.48148 -9.6553,-0.20451 -15.3814,3.54372 -3.4162,2.23629 -11.9858,6.73594 -19.0429,9.99913 -12.6811,5.86372 -12.8423,5.99772 -13.7743,11.45981 -1.249,7.32176 -0.1941,20.43452 3.8174,47.42511 1.8193,12.24216 3.3101,24.15107 3.3131,26.46423 0,3.67188 0.7482,4.5305 5.8546,6.76364 8.8517,3.8709 9.4861,3.63837 7.1641,-2.6234 z m 38.9919,1.14663 c 0.7819,-0.90018 1.8367,-3.75112 2.3443,-6.33546 0.9127,-4.64919 0.8781,-4.69251 -3.3176,-4.1067 -2.3319,0.3255 -4.3173,1.40899 -4.412,2.40745 -0.736,7.76214 -0.3952,9.67135 1.7239,9.67135 1.2319,0 2.8793,-0.7365 3.6614,-1.63664 z m 60.4361,-25.85917 c -0.7072,-22.9894 -2.213,-30.14002 -8.9615,-42.55299 l -3.5596,-6.54662 -1.8878,8.51058 c -1.0379,4.68084 -1.9696,15.58096 -2.0695,24.22247 -0.2017,17.37014 0.7135,20.80005 9.5711,35.86854 4.7405,8.06493 5.0612,8.33517 6.2833,5.30003 0.716,-1.77682 0.9935,-12.79942 0.624,-24.80201 z m -81.6024,9.94497 c 7.69,-1.26918 9.5859,-2.05946 9.9186,-4.13389 0.8389,-5.22825 -1.3251,-6.34483 -9.3189,-4.80847 -12.7687,2.45416 -14.9236,3.64853 -14.9236,8.27033 0,3.38646 0.4194,3.93862 2.4085,3.17087 1.3245,-0.51131 6.6865,-1.63577 11.9154,-2.49884 z m 25.5655,-3.75807 c 0,-2.73532 -0.8806,-3.95922 -3.628,-4.95295 -5.0366,-1.82182 -6.295,-1.12811 -6.86,3.78103 -0.3628,3.15036 0.1276,4.41829 1.9143,4.94291 1.3208,0.38813 3.3309,1.17673 4.466,1.75245 2.5735,1.30499 4.0798,-0.72065 4.1077,-5.52344 z m 27.2323,-70.67107 c -2.0647,-3.00308 -19.7412,-12.45327 -21.0196,-11.23721 -0.6011,0.57222 20.9957,14.1832 22.5049,14.1832 0.2967,0 -0.3704,-1.32571 -1.4853,-2.94599 z m -63.2682,-13.46394 c -1.6467,-1.56669 -15.3232,1.96037 -18.4744,4.7644 -8.2593,7.34962 -6.3262,7.88879 6.4304,1.79353 6.9334,-3.31281 12.3533,-6.26387 12.044,-6.55793 z m 5.0916,-12.89704 c -11.8111,-5.3123 -17.2028,-12.71407 -17.2028,-23.61648 0,-5.21423 -0.3197,-5.70485 -4.4726,-6.8377 -3.0911,-0.8434 -4.4725,-2.01418 -4.4725,-3.79004 0,-2.05586 1.189,-2.70055 5.9469,-3.2243 6.7451,-0.74253 7.2157,-1.31553 14.2573,-17.34744 6.0864,-13.85708 11.4713,-15.41935 13.1089,-3.80337 0.683,4.84601 1.0116,5.22174 3.472,3.96913 1.4944,-0.76101 5.7266,-1.18347 9.404,-0.9389 l 6.6869,0.44471 2.2541,-5.61902 c 3.7721,-9.40136 11.5646,-11.87346 14.4748,-4.59174 0.6986,1.74901 1.2683,7.70786 1.2662,13.242 0,6.49644 1.0466,13.43561 2.9618,19.58229 2.5394,8.15182 2.733,10.25921 1.3466,14.66111 -2.1091,6.69782 -7.7963,11.97316 -18.2829,16.95862 -10.8302,5.1488 -20.6778,5.44061 -30.7487,0.91113 z m 25.9804,-10.40224 c 3.2823,-2.04602 3.6088,-3.0204 3.6088,-10.77102 0,-6.59145 -0.4975,-8.70297 -2.1948,-9.32269 -2.0895,-0.76287 -27.4809,1.57912 -32.5551,3.00274 -3.333,0.9352 -3.1626,8.39897 0.2888,12.57144 4.4256,5.35296 10.7984,7.70999 19.4998,7.21216 4.2673,-0.24422 9.3659,-1.45333 11.3539,-2.69263 z m -18.5736,-6.95715 c -0.089,-0.61817 -0.089,-1.56583 0,-2.10593 0.091,-0.54014 -1.9683,-0.98201 -4.5731,-0.98201 -2.6044,0 -5.0988,-0.55962 -5.5433,-1.24364 -2.4862,-3.82725 16.6985,-5.71402 19.9703,-1.96397 1.4507,1.66341 1.4191,2.35675 -0.1748,3.84182 -2.3772,2.21341 -9.4531,4.00735 -9.6781,2.45373 z m -4.2282,-25.01911 c -0.2534,-1.26019 -1.3758,-2.29131 -2.4903,-2.29131 -1.1147,0 -2.2353,1.03112 -2.4907,2.29131 -0.3238,1.60767 0.4181,2.29134 2.4907,2.29134 2.073,0 2.8159,-0.68367 2.4903,-2.29134 z m 15.1668,-1.41412 c 0.3783,-2.53852 -0.08,-2.97821 -2.7526,-2.61866 -2.1378,0.28802 -3.3581,1.44908 -3.6609,3.48292 -0.3782,2.53854 0.08,2.97823 2.7526,2.61866 2.138,-0.28798 3.3583,-1.44906 3.6609,-3.48292 z" transform="translate(89.356122,-12.876659) translate(4115.7039,-412.84636)"/>
</svg>