<?xml version="1.0" ?><svg xmlns="http://www.w3.org/2000/svg" width="318.63889mm" height="308.3772mm" viewBox="0 0 318.63889 308.3772">
    <path d="m -5496.4405,851.38273 c -8.7135,-11.31566 -15.0958,-44.84989 -13.6818,-67.41239 1.4141,-22.56251 20.9813,-48.77081 24.5737,-51.07521 3.5924,-2.30439 15.5926,-11.93474 15.5926,-11.93474 0,0 -15.8601,-17.78173 -14.1404,-38.8997 1.7198,-21.11796 24.1696,-31.00019 31.9164,-27.3446 7.7468,3.6556 14.5556,7.70558 21.5876,19.98427 7.032,12.27868 6.0282,24.43317 6.0282,24.43317 0,0 14.1122,-3.65915 17.2461,6.79664 3.1338,10.45581 -3.1497,28.41828 -16.7495,47.74216 -13.5997,19.32387 -24.7544,37.79592 -25.1748,45.25944 -0.4203,7.46351 -0.8789,10.8685 4.9301,14.96141 5.809,4.09291 12.6881,9.08005 2.7516,20.80842 -9.9365,11.72837 -12.5722,15.84216 -27.9935,21.00946 -15.4212,5.16729 -26.8863,-4.32833 -26.8863,-4.32833 z" fill="#fff" transform="translate(216.73668,-8.5624432) translate(5345.4247,-640.96491)"/>
    <path d="m -5509.3054,796.74777 1.8095,20.3563 c 0,0 7.2391,7.8636 18.7635,10.4857 11.5244,2.6221 16.0925,1.22957 26.3883,-1.68405 10.2958,-2.91362 14.3576,-6.25242 14.3576,-6.25242 0,0 -4.1036,-9.17959 -2.4234,-18.67918 1.6803,-9.49958 35.458,-57.96693 36.9228,-60.79742 1.4649,-2.83051 6.2041,-25.90096 5.1701,-34.7414 -1.034,-8.84045 -16.2472,-6.3018 -16.2472,-6.3018 0,0 -5.7497,-51.29455 -33.4615,-46.93872 -27.7119,4.35586 -26.248,30.28638 -26.2049,35.83104 0.043,5.54466 12.6871,32.93457 12.6871,32.93457 l -21.381,21.52076 c 0,0 15.1923,-4.72115 13.3828,9.39255 -1.8095,14.11369 -0.5545,8.03647 -0.4517,24.27993 0.1029,16.24346 2.1268,33.49972 2.1268,33.49972 -11.391,0.97852 -21.4232,-5.91569 -31.4388,-12.90558 z" fill="#cb5050" transform="translate(216.73668,-8.5624432) translate(5345.4247,-640.96491)"/>
    <path d="m -7820.5586,4503.2539 c -6.2245,0.02 -13.9657,1.1725 -23.6426,3.8789 -44.2367,12.372 -63.3294,187.4003 -61.9121,205.1035 0,0 32.4529,24.679 46.3809,31.7617 13.9279,7.0828 16.8793,11.3229 31.584,12.7208 14.7046,1.3978 19.9851,1.5385 23.6093,-12.9532 3.6246,-14.4918 -8.8022,-132.8032 2.5371,-148.2734 11.339,-15.4703 12.4565,-55.7637 9.1426,-68.2051 -2.5887,-9.7199 -5.4688,-24.1044 -27.6992,-24.0332 z m 146.2031,281.5547 c 0,0 -52.4989,44.7632 -98.3105,51.6816 -45.8113,6.9184 -99.9705,-22.3488 -126.6094,-47.3183 0,0 -0.3007,59.2857 20.7422,94.4219 21.0437,35.1361 33.7869,71.3654 98.8711,56.8906 65.0835,-14.475 117.9494,-57.6762 132.4121,-78.7715 14.4631,-21.0953 12.0942,-50.4939 4.4883,-61.7149 -7.6056,-11.2209 -31.5938,-15.1894 -31.5938,-15.1894 z" transform="translate(216.73668,-8.5624432) translate(5345.4247,-640.96491) matrix(0.26458333,0,0,0.26458333,-3417.4795,-450.03122)" fill="#4d68ce"/>
    <path d="m -5454.308,701.50033 c 0,0 3.7546,-16.53479 6.175,-19.17623 2.4205,-2.64144 8.6146,0.73755 9.3961,8.73051 0.7814,7.99296 -0.8184,11.34227 -6.2704,13.92764 -5.452,2.58538 -9.3007,-3.48192 -9.3007,-3.48192 z" fill="#fff" transform="translate(216.73668,-8.5624432) translate(5345.4247,-640.96491)"/>
    <path d="m -5454.3215,649.54897 c -5.4516,-0.20119 -11.9163,1.00951 -16.7851,3.31763 -4.9707,2.3565 -10.4131,8.46642 -14.0234,15.74322 -5.5381,11.16289 -3.6253,29.1863 4.4612,42.02896 3.4952,5.55114 3.557,5.8845 1.5912,8.65115 -3.4542,5.00553 1.1072,7.75553 5.9836,4.99039 1.3809,-0.74965 2.269,-1.38382 3.0732,-1.00097 l 0.7351,0.34995 c 0.8042,0.38285 1.8434,0.68739 3.5269,1.81488 4.5333,3.03618 3.9238,5.5273 0.089,18.4737 -2.55,8.60903 -2.9499,9.3406 -4.8333,8.84598 -1.7265,-0.45347 -1.9132,-1.42919 -1.1699,-6.13141 1.071,-6.77737 -0.8752,-9.71299 -5.4762,-8.26048 -1.3148,0.41512 -2.6495,3.21634 -4.9883,10.47068 -6.0411,18.73869 -7.6455,36.56939 -4.4876,49.86414 1.914,8.05474 1.3088,10.43149 -1.8118,7.11998 -0.9687,-1.02793 -2.0788,-1.68319 -2.4675,-1.45625 -1.1555,0.67495 0.749,3.80729 3.6582,6.01669 1.4927,1.13377 2.6017,2.58938 2.4344,3.22668 -0.1539,0.64083 0.1145,4.10863 0.5969,7.70599 v -5.3e-4 c 0.944,7.0392 0.3258,7.59361 -4.4809,4.01836 -3.1608,-2.35109 -5.226,-15.13435 -4.5243,-28.00088 0.2617,-4.79618 -2.4368,-1.77654 -2.9372,3.28714 -0.2167,2.2066 -0.742,3.92025 -1.1653,3.80907 -0.4235,-0.11123 -2.4377,-1.87483 -4.4763,-3.91966 -3.2003,-3.20991 -3.7372,-4.58821 -3.931,-10.08672 -0.3134,-8.87754 4.2987,-26.62658 9.5436,-36.72644 2.23,-4.29445 7.4699,-11.72953 11.7972,-16.74058 4.0932,-4.73986 6.0822,-7.53997 6.6499,-8.32133 2.1442,-2.95162 -3.2996,-1.44611 -6.5879,0.7528 -3.2379,2.16055 -8.2904,6.75408 -11.2282,10.20765 -14.5271,17.07853 -21.0811,37.07724 -19.5234,59.57052 0.3795,5.48508 0.6403,10.16301 0.5793,10.39523 -0.061,0.23227 -2.2597,-2.78395 -4.8865,-6.70243 -12.1824,-18.17281 -27.3525,-35.55111 -32.1288,-36.80551 -0.9869,-0.25919 -3.3837,0.3043 -5.3263,1.25212 -5.0602,2.46913 -6.6382,9.64064 -4.1842,19.01486 3.0673,11.71674 17.4799,43.2941 30.3444,66.48276 5.0337,9.07347 5.8971,11.42506 4.9335,13.44105 -0.9542,1.99761 0.094,5.02642 5.7454,16.5897 3.8017,7.78015 9.0005,17.01405 11.5512,20.51915 5.1152,5.32376 4.374,7.94694 3.2252,14.78153 -2.5756,15.31956 -2.5424,28.87726 0.088,35.82365 0.9261,2.446 2.1206,3.72737 3.6355,3.90001 4.2693,0.48692 6.0699,-2.98534 9.6702,-18.6469 4.0135,-17.45983 3.7791,-21.75431 -1.9503,-35.73428 -15.1762,-37.02873 -14.1528,-34.87375 -24.9478,-52.54098 -10.9065,-17.84949 -34.7975,-69.96806 -32.6487,-71.22304 1.544,-0.90187 12.4193,14.93146 29.2664,42.6098 10.1441,16.66575 19.6504,31.65297 21.1254,33.30495 3.2228,3.60908 15.2614,7.59368 18.0407,5.97121 0.9233,-0.53903 4.1064,-1.15373 7.073,-1.36633 7.38,-0.52878 19.6312,-5.36789 25.8289,-10.20196 l 5.134,-4.00492 9.4543,4.45916 c 5.1995,2.45246 11.0941,5.16411 13.0989,6.02547 4.4472,1.91075 10.4495,9.38739 15.1985,18.93321 4.1636,8.36883 6.8222,11.39368 8.9318,10.16167 1.8952,-1.10651 1.8594,-5.04317 -0.097,-10.58333 -2.3141,-6.55392 -1.7438,-6.46946 2.5683,0.3793 4.1953,6.66269 4.908,7.18066 7.4104,5.38933 2.6173,-1.87325 1.3808,-7.17415 -3.298,-14.13867 -4.1414,-6.16451 -3.07,-6.14783 3.8106,0.0605 3.1987,2.88618 5.7075,2.93476 6.4456,0.12404 0.6393,-2.43422 -3.4524,-8.47928 -6.9794,-10.31049 -9.1903,-4.7717 -8.967,-4.36976 -2.7399,-4.91547 3.0888,-0.27084 6.2374,-0.50668 6.9965,-0.52348 2.0678,-0.0464 2.7284,-4.09678 0.8842,-5.42241 -4.848,-3.48478 -12.504,-2.83942 -24.5608,2.07068 l -6.3004,2.56573 -4.6044,-2.83239 c -2.5323,-1.55783 -6.5653,-3.82569 -8.9627,-5.03948 -9.4738,-4.79651 -9.0304,-4.37522 -7.6264,-7.2502 0.8376,-1.7158 6.4749,-5.60455 15.9029,-10.97091 30.7647,-17.51108 47.4812,-25.28537 58.2879,-27.10687 10.6227,-1.79052 23.7543,4.34419 34.5142,16.12408 8.5513,9.36207 17.922,23.38013 17.7565,26.5622 -0.1566,2.99952 21.1532,41.11442 29.7408,53.19521 6.6355,9.33477 16.723,18.93494 23.2032,22.08343 2.9927,1.45385 6.1052,3.03281 6.9175,3.50932 5.0593,1.6128 5.8184,-2.81786 5.2927,-5.04052 -1.2684,-5.32852 -15.5438,-21.37235 -23.8223,-26.77356 -7.8612,-3.55989 -8.4445,-10.45467 -11.1094,-18.13377 -7.1863,-20.70741 -9.7271,-25.91226 -15.1061,-30.94851 -2.6267,-2.45962 -7.5221,-8.676 -10.8789,-13.81362 -11.7331,-17.95848 -22.5788,-28.23728 -36.4438,-34.54001 -15.7439,-7.15694 -30.8512,-3.02113 -67.9194,18.59473 l -24.2455,14.13867 -1.6175,-2.97966 c -0.8899,-1.63893 -3.4165,-3.84604 -5.6157,-4.90513 -3.2363,-1.5587 -4.1609,-2.69619 -4.8539,-5.97173 -0.471,-2.22548 -0.3019,-6.16085 0.3762,-8.7452 1.5856,-6.04583 10.6958,-21.53628 20.8959,-35.5291 15.5965,-21.39577 23.5012,-39.56787 22.4973,-51.71777 -0.2277,-2.75243 -0.099,-5.18812 0.2847,-5.41259 0.3842,-0.22445 17.6384,4.04096 38.3424,9.47849 32.3517,8.49655 38.616,10.41169 44.5606,13.62346 9.9216,5.36042 26.1749,9.12702 27.9115,6.46833 0.9984,-1.52873 -2.6722,-4.58821 -8.0347,-6.69726 l -5.0653,-1.99264 3.6271,-1.61334 c 1.9949,-0.88752 5.3819,-1.71242 7.5262,-1.83296 5.5599,-0.31276 7.2189,-1.19164 6.2342,-3.30575 -0.9349,-2.00741 -8.2515,-4.15611 -12.8121,-3.76256 -2.9274,0.25265 -2.8147,0.11228 1.5255,-1.90066 6.2747,-2.91014 6.6241,-4.74423 1.1772,-6.17481 -4.2006,-1.10317 -4.229,-1.14424 -1.8681,-2.68563 2.337,-1.52584 2.3325,-1.58212 -0.1809,-2.24224 -4.1662,-1.09416 -13.7625,3.58107 -18.1131,8.82427 -2.1072,2.53989 -4.1147,5.6547 -4.4483,6.92516 -0.3392,1.26902 -0.809,2.25626 -1.0475,2.19366 -0.2373,-0.0623 -5.5802,-2.75474 -11.8726,-5.98309 -9.7666,-5.01079 -14.7268,-6.81514 -33.8884,-12.32897 -15.1832,-4.369 -24.8784,-6.66953 -29.9594,-7.10861 -4.1311,-0.35695 -10.1177,-1.06688 -13.3036,-1.57716 -3.1858,-0.51023 -6.5049,-0.61083 -7.3758,-0.22376 -0.8707,0.38696 -1.6527,0.49196 -1.7337,0.23358 -0.083,-0.2586 -0.8493,-4.34638 -1.7033,-9.08369 -2.9263,-16.23392 -15.5707,-32.64962 -27.5771,-35.80195 -1.4952,-0.39258 -3.1994,-0.6165 -5.0162,-0.68367 z m -2.0919,7.81296 c 1.581,0.0539 2.8081,0.30962 3.0908,0.79375 0.175,0.30003 -0.6728,2.14569 -1.8847,4.10156 -1.6192,2.61425 -3.5048,3.92141 -7.1179,4.93406 -2.7034,0.75766 -5.1696,1.31057 -5.4808,1.22887 -0.3114,-0.0817 -0.4359,-1.95441 -0.278,-4.16202 0.2488,-3.47932 0.7208,-4.22568 3.5481,-5.60379 1.8691,-0.91094 5.4875,-1.38225 8.1225,-1.29243 z m 7.7468,3.65559 c 1.2463,-0.0777 2.8088,1.24602 5.6291,4.13877 9.8787,10.13275 15.304,26.35122 13.0054,38.87721 -0.8029,4.37602 -1.7433,6.80467 -2.9982,7.74629 -2.3783,1.78355 -10.0383,1.29568 -9.5385,-0.60771 0.1937,-0.73774 1.8459,-2.25733 3.6717,-3.37654 7.2021,-4.41548 8.3686,-15.00273 2.7197,-24.67601 -3.5213,-6.02982 -7.1915,-9.09748 -10.4542,-8.73849 -1.8098,0.19911 -3.9615,2.65013 -6.1743,7.03265 -1.3712,2.71512 -3.9272,3.00326 -4.6839,0.52813 -0.5207,-1.70183 2.1954,-11.87312 3.5021,-13.11599 1.3103,-1.2465 8.4264,0.73459 9.5503,2.65875 0.4996,0.85556 1.0098,1.16765 1.1343,0.6935 0.4463,-1.69881 -2.7112,-4.5505 -6.0471,-5.46065 -3.0417,-0.83001 -3.2607,-1.14971 -2.0929,-3.05356 1.0291,-1.67764 1.8072,-2.58594 2.7765,-2.64635 z m -22.7955,1.48621 c 0.6946,-0.21242 0.6335,1.62946 -0.171,4.57233 -0.9965,3.68117 -2.1769,5.53859 -4.6674,7.34426 -2.9636,2.15051 -3.2768,2.1811 -2.7808,0.29197 0.7939,-3.05319 6.2456,-11.78863 7.6192,-12.20856 z m 11.3073,6.88227 c 0.1249,-0.003 0.234,0.008 0.3246,0.0315 1.0521,0.27632 -2.6887,11.96456 -3.9641,12.38581 -0.7477,0.24706 -1.6962,0.36775 -2.1074,0.26975 -0.9882,-0.2373 -2.3988,-6.64349 -1.8898,-8.58139 0.319,-1.21485 5.7639,-4.06735 7.6367,-4.10569 z m -12.0406,5.79189 c 0.054,-0.0157 0.089,-0.0111 0.1013,0.015 0.1017,0.20935 0.5258,1.95771 0.9431,3.88555 0.7152,3.30654 0.5821,3.62632 -2.3466,5.64565 l -3.1042,2.14044 -1.0087,-3.01015 c -0.9511,-2.83936 -0.8285,-3.18157 2.1621,-6.02599 1.5256,-1.45134 2.8729,-2.54084 3.253,-2.65049 z m 26.2858,10.39627 c 1.9541,0.12207 3.9263,4.80574 3.5501,10.0645 -0.2407,3.36854 -0.7292,4.21634 -3.023,5.25136 -0.9453,0.40668 -8.3295,2.52757 -6.4963,-1.07022 1.3859,-2.71985 2.4071,-7.42683 3.5378,-11.21017 0.6586,-2.20369 1.5431,-3.09096 2.4314,-3.03547 z m -18.6707,0.24495 c 0.19,-0.008 0.3909,0.0125 0.5932,0.0656 1.5042,0.39506 1.5834,0.84943 1.5513,8.91263 -0.011,2.80693 0.5777,4.81605 1.4816,5.05344 0.8255,0.21678 1.3865,0.82878 1.247,1.36012 -0.5496,2.09269 -2.4264,1.47452 -3.2789,-1.08004 -1.4035,-4.20671 -3.0621,-12.38298 -2.7518,-13.56454 0.1156,-0.44036 0.5874,-0.72314 1.1576,-0.74724 z m 7.3928,0.79168 c 0.07,-0.006 0.141,-5.3e-4 0.2124,0.0181 0.5647,0.1483 0.6022,1.88656 0.083,3.86281 -1.0231,3.89565 -1.6388,4.39932 -1.9472,1.5937 -0.2843,-2.58308 0.5991,-5.38193 1.6516,-5.4746 z m -13.1718,0.89297 c 0.3981,0.10457 1.4694,3.33237 2.3802,7.17269 0.9108,3.84025 2.0462,7.39233 2.5229,7.89357 0.5681,0.5954 0.3201,1.30554 -0.7132,2.04484 v -5.3e-4 c -2.4927,1.7845 -3.299,0.96976 -2.6996,-2.72748 0.4354,-2.68624 -0.099,-3.99424 -2.4887,-6.08956 -3.9913,-3.49922 -4.4807,-5.37776 -1.8485,-7.0962 1.1688,-0.76312 2.4509,-1.30201 2.8495,-1.19735 z m 52.1462,13.21728 v 0 c 2.4708,-0.27195 5.9358,3.99064 6.8336,8.40724 1.6157,7.95042 -2.9535,20.94258 -12.6881,36.07738 v -5.3e-4 c -2.9893,4.64727 -7.2714,10.8964 -9.5162,13.88701 l -4.0809,5.43739 -0.7819,-3.49125 c -0.7627,-3.40332 -0.6705,-3.56384 3.6804,-6.36654 5.6033,-3.60997 9.1891,-10.64474 12.0742,-23.68744 1.6992,-7.68141 1.8109,-10.04846 0.6165,-13.03797 -1.1315,-2.83356 -1.0995,-4.46261 0.1447,-7.26622 l 1.604,-3.61373 1.587,5.69526 c 0.873,3.13258 1.4202,7.55792 1.216,9.83402 -0.2305,2.57024 0.088,3.86988 0.8418,3.42977 0.7548,-0.43967 1.2826,-2.5738 1.3937,-5.63118 0.2699,-7.41958 -0.2161,-10.1887 -2.6412,-15.03785 -1.9306,-3.86046 -1.9661,-4.45002 -0.2822,-4.63537 z m -40.7107,4.51032 c 0.7917,0.1371 1.6015,1.00223 3.1419,2.97759 1.5522,1.99 3.3287,3.75143 3.9476,3.91398 0.6193,0.16263 1.2515,0.70432 1.4035,1.20354 0.1528,0.49952 -0.5074,1.54635 -1.4671,2.32647 -1.6011,1.30181 -2.1033,0.99587 -6.1045,-3.7238 -3.8089,-4.49249 -4.1225,-5.28154 -2.481,-6.24045 0.6158,-0.35955 1.0845,-0.53959 1.5596,-0.45733 z m -6.0622,2.17919 c 0.7407,0.2423 1.1559,1.13669 2.5415,3.46284 l 0.5172,0.86816 c 0.7071,1.18701 1.7923,2.08924 2.7389,3.09129 1.4887,1.76151 2.633,3.55404 2.5218,3.97753 -0.2499,1.05011 -6.4212,-0.7282 -7.8424,-2.25671 -0.5954,-0.63964 1.4373,-1.6466 1.9632,-2.78846 0.075,-3.07363 -3.1381,-4.84437 -5.717,-4.48964 -2.218,1.47625 -2.4361,1.43499 -2.8861,-0.0377 -0.202,-0.66093 0.5486,-1.28067 1.6686,-1.37718 2.6875,-0.28259 3.7536,-0.69239 4.4943,-0.4501 z m 14.5263,0.1571 c 0.3338,-0.0474 1.0202,0.0842 2.0541,0.39584 1.7235,0.51945 3.045,1.29166 2.9337,1.71514 -0.2686,1.03651 -3.5057,0.0953 -4.9264,-1.43247 -0.3764,-0.40492 -0.3953,-0.63109 -0.061,-0.67851 z m 6.1329,8.97206 c 0.8535,-0.0187 1.7701,0.0374 2.7327,0.18604 4.5607,0.7041 4.8507,0.90229 3.4824,2.37608 -0.821,0.88428 -2.7038,2.0559 -4.1842,2.60346 -1.4806,0.54747 -3.6275,0.74303 -4.7697,0.43304 -6.1157,-1.65565 -3.2354,-5.46787 2.7388,-5.59862 z m 18.6511,3.00189 -0.2889,4.31394 c -0.3792,5.67188 -6.4975,24.32214 -8.4713,25.82478 -0.8503,0.64661 -2.5135,1.59425 -3.697,2.10582 -3.3754,1.45921 -3.085,-1.5269 0.5602,-5.76812 3.2858,-3.82323 3.5205,-5.06165 0.7116,-3.75327 -2.938,1.36847 0.1457,-12.82042 3.2448,-14.93138 1.2794,-0.87115 3.5896,-2.98098 5.1335,-4.68809 z m -33.6083,9.37513 v 0 c 0.3062,0.0223 0.6938,0.10244 1.1761,0.23203 4.0578,1.09393 4.5238,2.56836 3.0283,9.5865 -1.9276,9.04327 0.2498,8.67386 2.6458,-0.44907 1.7003,-6.47402 2.0837,-7.12187 3.946,-6.6673 1.1342,0.27683 3.3909,0.14679 5.0147,-0.28939 4.3284,-1.16306 4.6166,-0.86429 3.4499,3.57808 -0.5835,2.22181 -0.912,5.43126 -0.7302,7.13187 0.2573,2.40752 -0.095,3.3402 -1.5921,4.21421 -1.6986,0.99209 -1.9183,0.78486 -1.8903,-1.78387 0.044,-4.02811 -2.9706,-4.72641 -3.3151,-0.76791 -0.1416,1.62284 -0.1254,3.97292 0.036,5.22242 0.2895,2.2412 0.2705,2.23775 -1.4201,-0.26872 -1.0195,-1.51145 -1.3965,-3.7485 -0.9307,-5.52214 0.4534,-1.72618 0.2805,-2.82767 -0.4103,-2.61638 -1.6923,0.51735 -2.705,5.38459 -1.834,8.81341 0.6877,2.70669 0.5027,2.97455 -2.7182,3.93413 -3.5769,1.06569 -5.7849,4.54636 -2.6272,4.14083 0.9373,-0.12022 2.4704,-0.31694 3.4075,-0.43718 2.5132,-0.32272 1.6009,1.55197 -2.4954,5.12837 -2.0644,1.80238 -3.7817,4.28974 -3.9858,5.77639 -0.4739,3.43092 1.7676,4.90551 2.6463,1.74046 0.6717,-2.42209 3.7008,-5.42993 5.0989,-5.06274 0.4211,0.1106 1.373,1.60013 2.1157,3.30988 1.7823,4.10456 3.4545,3.40898 3.9527,-1.64435 0.5027,-5.09973 1.8601,-5.58613 4.5801,-1.64072 l 2.1161,3.0701 -4.0204,6.69726 c -3.7642,6.27062 -6.2316,8.17491 -8.077,6.23476 -0.4307,-0.45246 -0.4192,-2.20812 0.026,-3.90209 0.4706,-1.79183 0.3105,-2.9273 -0.3839,-2.71508 -0.6561,0.20071 -1.6105,1.95449 -2.1208,3.89744 -0.8821,3.35886 -1.1062,3.48603 -4.5532,2.58072 -3.6144,-0.94923 -4.9922,-3.27778 -3.0391,-5.1356 0.5212,-0.49561 0.4147,-1.04085 -0.2362,-1.21181 -0.651,-0.17095 -1.6673,0.54972 -2.2593,1.60145 -0.592,1.05167 -1.7302,1.74059 -2.5296,1.53066 -2.2259,-0.58465 -8.1271,-5.34604 -8.6485,-6.97839 -0.255,-0.79803 0.3395,-4.57364 1.3405,-8.38502 1.4274,-5.48563 2.1258,-6.84924 3.344,-6.52932 1.2138,0.31877 1.1556,1.87291 -0.2491,7.34219 -2.0531,7.96316 -0.4547,7.36024 3.0008,-1.13223 1.6976,-4.17227 2.9959,-5.81502 5.5263,-6.99389 2.9764,-1.38692 3.0715,-1.54384 0.9514,-1.57044 -2.2704,-0.0284 -2.2748,-0.3991 -0.1251,-10.24382 1.2266,-5.61804 2.0769,-11.11916 1.8898,-12.22458 -0.204,-1.20353 -0.02,-1.65796 0.8987,-1.59112 z m -17.5344,47.23691 c 0.1642,-0.0958 2.5215,1.16416 5.239,2.80035 4.4572,2.68385 4.8654,3.25987 4.1739,5.89318 -0.4216,1.60532 -0.6784,3.72293 -0.57,4.70617 0.1556,1.41503 -0.5343,1.59571 -3.3104,0.86662 -4.7862,-1.25702 -6.2578,-3.51199 -6.027,-9.2351 0.108,-2.67142 0.3301,-4.93532 0.4945,-5.03122 z m 14.3294,6.93291 c 0.5853,-0.0296 1.3948,0.13342 2.5632,0.44028 1.9764,0.51908 3.5167,1.29372 3.4054,1.71721 -0.1037,0.42546 -0.1856,1.79187 -0.1756,3.03651 0.01,1.69106 -0.7472,2.39418 -2.9921,2.78123 -1.6524,0.28478 -3.3953,0.4154 -3.8732,0.2899 -1.1428,-0.30013 -1.4225,-3.18922 -0.6092,-6.28592 0.3534,-1.34553 0.706,-1.92987 1.6815,-1.97921 z m 12.2422,1.14257 c 0.1027,0.0135 0.1721,0.0419 0.1979,0.0858 0.1023,0.17528 -0.5437,1.58369 -1.4351,3.13004 -1.6058,2.78513 -1.6224,2.78675 -1.7709,0.16588 -0.1007,-1.77846 0.3695,-2.80426 1.4345,-3.13004 0.6539,-0.19995 1.2653,-0.29219 1.5736,-0.25166 z m -26.4687,8.16798 c 0.1708,-0.0723 0.5203,0.14152 1.0697,0.5364 0.8818,0.63384 2.8698,1.48535 4.4178,1.89187 2.6384,0.69294 2.7843,1.15796 2.3275,7.40627 -0.2667,3.66696 -0.695,6.78823 -0.9488,6.93652 -0.6686,0.39063 -5.0591,-9.00478 -6.322,-13.52889 -0.6152,-2.20424 -0.8287,-3.12126 -0.5442,-3.24217 z m 16.5287,2.60914 c 2.5808,0.0388 2.741,0.4346 2.729,6.72104 l -0.013,6.67969 -3.3512,1.26918 c -5.1328,1.94325 -5.1179,1.96574 -4.6251,-7.13962 0.3655,-6.75625 0.9516,-7.59519 5.2602,-7.53029 z m -44.558,6.93239 c 0.3328,0.005 1.6025,0.66557 3.0701,1.61334 1.677,1.0831 3.5286,2.22486 4.1145,2.5368 0.5857,0.3119 1.0762,2.46433 1.0873,4.78317 0.012,2.31893 0.3192,6.14608 0.6821,8.5049 0.363,2.35882 0.4939,4.24516 0.2873,4.19096 -0.2052,-0.0539 -1.9572,-2.02905 -3.8938,-4.38939 -2.4276,-2.95911 -3.8336,-6.2342 -4.5279,-10.54871 -0.5538,-3.44143 -0.9598,-6.4347 -0.9028,-6.65179 0.01,-0.0272 0.036,-0.04 0.083,-0.0393 z m 46.237,10.85877 v 0 c 1.5332,-0.10801 2.1423,0.96134 2.8732,3.53467 0.9139,3.21536 0.8416,3.46262 -1.3292,4.58938 -2.9813,1.54715 -4.7362,0.98918 -7.2403,-2.30218 l -2.0392,-2.68098 3.7502,-1.74407 c 1.8117,-0.84248 3.0646,-1.33171 3.9847,-1.39682 z m -22.8886,1.66553 c 0.3877,-0.22661 2.6972,2.48885 5.1315,6.03374 4.3581,6.34597 4.3852,6.45553 1.7591,7.12618 -1.4668,0.37463 -3.2745,0.53904 -4.0168,0.36587 -1.4266,-0.33356 -4.0799,-12.82152 -2.8738,-13.52579 z m 33.4099,5.19038 c 0.2388,0.0173 0.5129,0.0671 0.8222,0.14831 3.2247,0.84689 5.0089,3.9619 3.5713,6.23425 -1.6572,2.61881 -2.3213,2.37163 -4.3041,-1.60145 -1.7123,-3.43118 -1.7613,-4.90223 -0.089,-4.78111 z m -53.358,2.83032 c 0.3821,0.11283 1.8828,1.17284 3.6293,2.57865 2.4471,1.97001 4.4631,5.17788 6.1918,9.85212 1.4096,3.81198 2.5082,7.14178 2.4402,7.39903 -0.2578,0.98165 -2.808,-0.31526 -5.7857,-2.94194 -2.1044,-1.85633 -3.6686,-4.94315 -4.8793,-9.62784 -0.9801,-3.79248 -1.7398,-7.05425 -1.6888,-7.24865 0.01,-0.0243 0.038,-0.0275 0.092,-0.0114 z m 49.2962,0.5085 c 0.095,0.006 0.1831,0.0209 0.2625,0.046 0.6284,0.19839 1.8594,2.00349 2.7363,4.01112 1.4382,3.29372 1.4128,3.59577 -0.2635,3.09284 -1.8269,-0.54824 -6.0737,-3.37178 -6.7102,-4.46123 -0.4789,-0.82019 2.5478,-2.77777 3.9749,-2.68872 z m -36.6841,6.18515 c 0.2408,-0.14067 1.8188,0.43922 3.5058,1.28881 3.1669,1.5946 8.822,12.19406 7.0125,13.14287 -0.4998,0.26188 -1.9753,0.5144 -3.2794,0.5612 -1.8594,0.0667 -2.8075,-0.92527 -4.3951,-4.59765 -2.1992,-5.0877 -3.5401,-9.98863 -2.8438,-10.39523 z m 19.6939,1.51877 c 0.3635,0.004 0.6568,0.0323 0.8532,0.091 1.4055,0.41981 7.0008,8.12895 6.1676,8.49767 -0.2988,0.13216 -2.5273,1.0383 -4.9532,2.01383 -2.4257,0.97557 -4.9108,1.64263 -5.5221,1.48208 -1.0819,-0.28417 -5.5691,-9.00232 -5.2529,-10.20609 0.1844,-0.70237 6.1631,-1.90356 8.7074,-1.87844 z m 11.8272,10.65826 c 0.1351,0.004 0.2509,0.0185 0.3458,0.0434 2.8121,0.73856 1.9494,2.17344 -3.4174,5.68389 -2.6356,1.72393 -5.1119,3.05033 -5.503,2.94763 -1.2029,-0.31595 -3.9682,-4.12171 -3.283,-4.51859 3.5178,-2.03874 9.8321,-4.21992 11.8576,-4.15634 z m -36.1022,2.25465 c 1.8987,0.16684 7.2056,2.94196 9.1426,5.2281 1.1099,1.30956 2.8902,2.60973 3.9564,2.88975 1.7493,0.45949 1.757,0.26274 0.081,-2.02055 l -1.8572,-2.53008 4.0519,-0.25115 c 3.4321,-0.21292 4.3824,0.11603 6.2177,2.15077 l 2.1673,2.40193 -2.775,1.18907 c -1.526,0.65408 -4.4526,1.55951 -6.503,2.01177 -5.6145,0.9947 -11.8901,-3.76535 -14.9929,-10.25261 -0.3756,-0.63868 -0.1212,-0.87262 0.5116,-0.817 z" transform="translate(216.73668,-8.5624432) translate(5345.4247,-640.96491)"/>
</svg>